PathFileType	4	(X/Y/Z)	Patient4_TMGait_0pt2_02_left_21.trc.trc
DataRate	CameraRate	NumFrames	NumMarkers	Units	OrigDataRate	OrigDataStartFrame	OrigNumFrames
47.781569965870	47.781569965870	4	33	mm	47.781569965870	18	       141
Frame#	Time	R.Midfoot.Superior			Sacral			L.Shoulder			Chest			R.Shoulder			Neck			R.ASIS			L.ASIS			R.Thigh.Superior			R.Thigh.Lateral			R.Thigh.Inferior			R.Patella			L.Thigh.Superior			L.Thigh.Lateral			L.Thigh.Inferior			L.Patella			L.Shank.Superior			L.Shank.Lateral			L.Shank.Inferior			R.Shank.Superior			R.Shank.Lateral			R.Shank.Inferior			R.Heel			R.Midfoot.Lateral			R.Toe			L.Heel			L.Midfoot.Lateral			L.Midfoot.Superior			L.Toe			L.Elbow			L.Wrist			R.Elbow			R.Wrist			
		X1	Y1	Z1	X2	Y2	Z2	X3	Y3	Z3	X4	Y4	Z4	X5	Y5	Z5	X6	Y6	Z6	X7	Y7	Z7	X8	Y8	Z8	X9	Y9	Z9	X10	Y10	Z10	X11	Y11	Z11	X12	Y12	Z12	X13	Y13	Z13	X14	Y14	Z14	X15	Y15	Z15	X16	Y16	Z16	X17	Y17	Z17	X18	Y18	Z18	X19	Y19	Z19	X20	Y20	Z20	X21	Y21	Z21	X22	Y22	Z22	X23	Y23	Z23	X24	Y24	Z24	X25	Y25	Z25	X26	Y26	Z26	X27	Y27	Z27	X28	Y28	Z28	X29	Y29	Z29	X30	Y30	Z30	X31	Y31	Z31	X32	Y32	Z32	X33	Y33	Z33	

18	47.905785714286	1082.615467559380	95.979188585140	624.637886158705	934.140594623169	1004.052660697551	627.425586320866	1061.814761057570	1437.288948619120	419.770816212836	1202.906255141424	1361.344682150905	545.182143434426	1172.285860091974	1435.043235777298	733.619118096690	1091.281052567738	1493.439946404166	574.024917119970	1180.484169735155	935.288051830258	690.467070766549	1110.943998693796	967.167310617639	425.453383981400	1199.123783807955	730.130417790710	647.914355522608	1120.743275043929	619.130750747196	713.726895043002	1180.805108784520	568.371554154749	620.733678676480	1174.874238003614	476.266655026165	623.554739907421	1192.094077555223	783.359674116711	437.719812767774	1135.805540313930	653.675425335388	362.956949367522	1244.687023726721	597.568493134503	412.805252240844	1266.083617137969	531.054200174008	407.070756119692	1252.357814447152	458.644468477930	391.282338118257	1185.109330008977	332.090263383600	331.774817443099	1275.282673532905	228.832475044574	374.377208031717	1130.669900202097	390.898104368240	628.946765258331	1050.413328481046	295.313516646899	693.751007641949	1067.687736220288	200.323339963379	621.675211160506	909.180292407299	47.596633579842	593.960275783297	994.140746286198	38.396448841151	665.804695669675	1202.109740688929	41.002459336140	649.637925570142	1183.700790083536	64.981105866678	408.707630331653	1256.592381354894	52.258810926727	329.187199952173	1340.380772563990	116.596511433028	345.737106368785	1466.341918914254	62.532234470203	321.399276851574	884.905161846502	1134.035374375595	346.321558858583	831.986054154744	881.061179921155	394.167951501179	1398.967315771771	1191.367414053791	828.106901296866	1628.358252485610	1275.789759669058	748.045095911831	
19	47.926714285714	1078.595574754778	96.075935759875	624.780464215753	934.752994197453	1004.054741129707	625.291990828359	1061.610674684296	1437.005826498020	417.356715909563	1203.466813907100	1361.123450169451	541.944134150291	1173.817586271674	1434.942104211590	730.428767219832	1091.997013419760	1493.207400092826	571.429961136470	1180.964669834260	935.252760553054	688.679135100689	1111.515387914998	966.698925689327	423.578877994615	1198.248666492887	729.571418591827	647.035820054470	1118.735161944204	619.235715699771	712.987893201787	1178.684168152274	567.775121938189	620.449320511588	1171.918374551792	475.716394857702	623.470007937897	1191.709827652443	781.609925882871	436.200194336433	1133.612212265390	652.236490002406	361.796089093466	1242.022664036937	595.442967636175	411.416112135509	1261.904969507614	529.059717281603	406.399398131801	1249.310829185986	456.931281236539	390.358233792899	1183.290285165174	330.185369205318	330.320970012208	1273.579278615795	227.520555585625	373.577054884233	1127.570979291881	390.608830091227	628.822997756787	1046.766753348483	295.472337717641	693.600895020342	1063.946105067164	200.268599542554	621.711473608439	904.986360139531	47.750291959466	593.998258377258	989.955608922951	38.463515868639	665.825353659965	1197.900492814653	40.889163652734	649.703965141887	1182.247265934129	64.416338921215	407.809479703062	1255.160505716416	51.556823562731	328.354449928172	1339.364138852753	114.967492636704	345.355628665572	1464.837644318699	59.994487689259	320.914563970159	883.538960185655	1133.909975181495	347.247552543648	830.719818451502	881.380338981071	398.757283302884	1405.758458653759	1197.166640811627	821.267464250641	1630.636748769234	1289.075133255682	737.102199149793	
20	47.947642857143	1074.533314172997	96.155983902689	624.861340810241	935.426998092683	1003.406925121887	622.848212109575	1061.525594727927	1435.966516631669	414.439045548826	1203.987141091479	1360.390115146393	538.503082924296	1174.975507340194	1434.436503448782	726.967472582911	1092.610116108348	1492.463865819397	568.346534680987	1181.575061280612	934.764903470218	686.808049078586	1112.344258412333	965.667848645936	421.563438206313	1197.868667174982	728.691772893884	645.812178772287	1117.492970175401	618.871807187089	711.873085844946	1177.322083349953	566.841734387694	619.703168815147	1169.795808784303	474.720094426116	622.881675662532	1191.777595439028	779.308137908968	434.600403159636	1132.018261690549	650.308120277647	360.617301160645	1239.850397370694	592.750331848021	410.254101697985	1258.321637015861	526.384511716970	405.851401790510	1246.405246607857	454.495162683340	389.608801167612	1180.871765249820	327.929489384934	329.105246302624	1270.667508989816	225.354524516707	373.094157653724	1125.107814120197	389.878572747927	628.291902359124	1043.613131848407	295.351903553279	693.151277669214	1060.421891454968	199.895338249365	621.514337318806	900.769474201352	47.753997748092	593.990421686311	985.743532834822	38.467607967726	665.826251375420	1193.672515678823	40.824067135844	649.756061521231	1178.900024391565	62.799037844941	407.016123110108	1251.838983964433	50.367512170566	327.544150044944	1336.402650444968	112.886512183455	345.329553795695	1461.503251918051	57.363884340555	320.449719420782	882.702536984969	1132.734546879746	347.401250096803	829.816027947165	880.651491308597	402.071031249419	1411.315269744394	1201.893863037030	814.682097035777	1631.859535282237	1300.292889308848	726.647604378741	
21	47.968571428571	1070.417814946782	96.207984989002	624.873276010944	936.197973316743	1002.246853845253	620.162067793396	1061.531736943799	1434.322652083602	411.051654458595	1204.482170848747	1359.260372163669	534.833887124223	1175.851391396620	1433.633153679150	723.226133346301	1093.137853940752	1491.322793061080	564.797048417619	1182.370265873869	933.903968697192	684.763977027244	1113.358179851467	964.194058300909	419.357591005386	1197.918519136721	727.534315209811	644.183369365395	1116.917005474744	618.114886353363	710.371403960706	1176.562890036021	565.612588758081	618.475383789039	1168.323146917296	473.351599791116	621.788348847807	1192.205049279788	776.571453391804	432.800243274727	1130.900782107962	647.974413394632	359.372348626101	1238.102461017907	589.615635666077	409.199795223193	1255.324632649229	523.203492206907	405.320402749897	1243.676771484650	451.502542381557	388.967809853983	1178.013518044480	325.357121728439	328.110637479103	1266.871337934103	222.478333297894	372.905102370574	1123.127751909645	388.783356577672	627.363482753767	1040.856834141622	294.996375243191	692.421696309360	1057.054407893284	199.255121135719	621.095979736312	896.531868647369	47.616351616198	593.946237342612	981.506615316113	38.413517487911	665.814433519445	1189.426149850651	40.803320397055	649.791311263859	1174.173164586191	60.197188803894	406.322406753178	1247.196035870467	48.719266039694	326.804216588462	1331.971967560245	110.503071142550	345.671916693714	1456.894544283101	54.894165960878	320.180616276484	882.385326188316	1130.692070736381	346.706255924863	829.352415074932	879.011019741127	403.923585837012	1415.729507850233	1205.556627012192	808.421179264276	1632.191553595506	1309.497375161945	716.755531441354	
